# xmcd
#
# Track frame offsets: 
#        150
#        15535
#        26337
#        43025
#        53222
#        68077
#        78945
#        98617
#        109755
#        121832
#        135330
#        146952
#        158205
#        173732
#        188807
#        201245
#        216620
#        234992
#        245722
#        256445
#
# Disc length: 3599 seconds
#
# Revision: 3
# Processed by: cddbd v1.5.1PL2 Copyright (c) Steve Scherf et al.
# Submitted via: ExactAudioCopy v0.95b3
#
DISCID=160e0d14
DTITLE=Odetta - Livin' with the Blues
DYEAR=2000
DGENRE=Folk Blues
TTITLE0=Make Me a Pallet on Your Floor
TTITLE1=Mean and Evil
TTITLE2=Livin' with the Blues
TTITLE3=Nobody Knows You When You're Down and Out
TTITLE4=House of the Rising Sun
TTITLE5=Empty Pocket Blues
TTITLE6=Fare-thee-well
TTITLE7=Rosie
TTITLE8=Special Delivery Blues
TTITLE9=Down on Me
TTITLE10=Another Man Done Gone
TTITLE11=Jumpin' Judy
TTITLE12=Timber
TTITLE13=Rambler-Gambler
TTITLE14=Sail Away, Ladies
TTITLE15=Midnight Special
TTITLE16=Rambling Round Your City
TTITLE17=Bald Headed Woman
TTITLE18=Ain't No Grave
TTITLE19=Roll On, Buddy
EXTD=CD: Vanguard Records 79557-2 (2000-04-18), UPC 015707955720.
EXTT0=
EXTT1=
EXTT2=
EXTT3=
EXTT4=
EXTT5=
EXTT6=
EXTT7=
EXTT8=
EXTT9=
EXTT10=
EXTT11=
EXTT12=
EXTT13=
EXTT14=
EXTT15=
EXTT16=
EXTT17=
EXTT18=
EXTT19=
PLAYORDER=
